<svg xmlns="http://www.w3.org/2000/svg" xmlns:xlink="http://www.w3.org/1999/xlink"><defs><symbol viewBox="0 0 32 32" id="account"><path d="M 16 4 C 12.144531 4 9 7.144531 9 11 C 9 13.394531 10.21875 15.519531 12.0625 16.78125 C 8.484375 18.304688 6 21.859375 6 26 L 8 26 C 8 21.535156 11.535156 18 16 18 C 20.464844 18 24 21.535156 24 26 L 26 26 C 26 21.859375 23.515625 18.304688 19.9375 16.78125 C 21.78125 15.519531 23 13.394531 23 11 C 23 7.144531 19.855469 4 16 4 Z M 16 6 C 18.773438 6 21 8.226563 21 11 C 21 13.773438 18.773438 16 16 16 C 13.226563 16 11 13.773438 11 11 C 11 8.226563 13.226563 6 16 6 Z" /></symbol><symbol viewBox="0 0 32 32" id="add-contracts"><path d="M 6 3 L 6 29 L 26 29 L 26 9.59375 L 25.71875 9.28125 L 19.71875 3.28125 L 19.40625 3 Z M 8 5 L 18 5 L 18 11 L 24 11 L 24 27 L 8 27 Z M 20 6.4375 L 22.5625 9 L 20 9 Z" /></symbol><symbol viewBox="0 0 32 32" id="calendar"><path d="M 9 4 L 9 5 L 5 5 L 5 27 L 27 27 L 27 5 L 23 5 L 23 4 L 21 4 L 21 5 L 11 5 L 11 4 Z M 7 7 L 9 7 L 9 8 L 11 8 L 11 7 L 21 7 L 21 8 L 23 8 L 23 7 L 25 7 L 25 9 L 7 9 Z M 7 11 L 25 11 L 25 25 L 7 25 Z M 13 13 L 13 15 L 15 15 L 15 13 Z M 17 13 L 17 15 L 19 15 L 19 13 Z M 21 13 L 21 15 L 23 15 L 23 13 Z M 9 17 L 9 19 L 11 19 L 11 17 Z M 13 17 L 13 19 L 15 19 L 15 17 Z M 17 17 L 17 19 L 19 19 L 19 17 Z M 21 17 L 21 19 L 23 19 L 23 17 Z M 9 21 L 9 23 L 11 23 L 11 21 Z M 13 21 L 13 23 L 15 23 L 15 21 Z M 17 21 L 17 23 L 19 23 L 19 21 Z" /></symbol><symbol viewBox="0 0 32 32" id="check"><path d="M 28.28125 6.28125 L 11 23.5625 L 3.71875 16.28125 L 2.28125 17.71875 L 10.28125 25.71875 L 11 26.40625 L 11.71875 25.71875 L 29.71875 7.71875 Z" /></symbol><symbol viewBox="0 0 32 32" id="dashboard"><path d="M 16 2.59375 L 15.28125 3.28125 L 2.28125 16.28125 L 3.71875 17.71875 L 5 16.4375 L 5 28 L 14 28 L 14 18 L 18 18 L 18 28 L 27 28 L 27 16.4375 L 28.28125 17.71875 L 29.71875 16.28125 L 16.71875 3.28125 Z M 16 5.4375 L 25 14.4375 L 25 26 L 20 26 L 20 16 L 12 16 L 12 26 L 7 26 L 7 14.4375 Z" /></symbol><symbol viewBox="0 0 32 32" id="logout"><path d="M 16 3 C 12.15625 3 9 6.15625 9 10 L 9 13 L 6 13 L 6 29 L 26 29 L 26 13 L 23 13 L 23 10 C 23 6.15625 19.84375 3 16 3 Z M 16 5 C 18.753906 5 21 7.246094 21 10 L 21 13 L 11 13 L 11 10 C 11 7.246094 13.246094 5 16 5 Z M 8 15 L 24 15 L 24 27 L 8 27 Z" /></symbol><symbol viewBox="0 0 32 32" id="open-tasks"><path d="M 4 4 L 4 28 L 28 28 L 28 12.1875 L 26 14.1875 L 26 26 L 6 26 L 6 6 L 25.8125 6 L 27.8125 4 Z M 27.28125 7.28125 L 16 18.5625 L 11.71875 14.28125 L 10.28125 15.71875 L 15.28125 20.71875 L 16 21.40625 L 16.71875 20.71875 L 28.71875 8.71875 Z" /></symbol></defs></svg>